<?xml version="1.0" encoding="utf-8"?>
<!-- Generator: Adobe Illustrator 18.1.1, SVG Export Plug-In . SVG Version: 6.00 Build 0)  -->
<!DOCTYPE svg PUBLIC "-//W3C//DTD SVG 1.1//EN" "http://www.w3.org/Graphics/SVG/1.1/DTD/svg11.dtd">
<svg version="1.1" id="Layer_1" xmlns="http://www.w3.org/2000/svg" xmlns:xlink="http://www.w3.org/1999/xlink" x="0px" y="0px"
	 width="450px" height="188px" viewBox="0 0 450 188" style="enable-background:new 0 0 450 188;" xml:space="preserve">
<style type="text/css">
	.st0{fill:#9C2C27;}
</style>
<g>
	<path class="st0" d="M63.6,139.2c0,1.3-0.2,2.6-0.7,3.7c-0.4,1.2-1,2.2-1.8,3.1c-0.8,0.9-1.6,1.8-2.7,2.5c-1,0.7-2.1,1.4-3.3,1.9
		c-1.2,0.5-2.4,0.9-3.6,1.1c-1.2,0.2-2.5,0.4-3.7,0.4H20.4v-47h25.2c1.1,0,2.3,0.1,3.5,0.2c1.2,0.2,2.4,0.4,3.6,0.8
		c1.2,0.3,2.3,0.8,3.3,1.4c1.1,0.6,2,1.3,2.8,2.1c0.8,0.8,1.4,1.8,1.9,2.8c0.5,1.1,0.7,2.3,0.7,3.7c0,1.3-0.3,2.5-0.8,3.6
		c-0.5,1.1-1.2,2-2.1,2.9s-1.9,1.6-3,2.2s-2.3,1.2-3.6,1.7c1.6,0.4,3.1,1,4.5,1.7c1.4,0.7,2.7,1.6,3.8,2.6c1.1,1,1.9,2.3,2.6,3.7
		C63.3,135.7,63.6,137.4,63.6,139.2z M48.2,117.1c0-2.7-0.7-4.6-2.1-5.8c-1.4-1.2-3.4-1.8-6-1.8h-6.8v15.2H39c1.2,0,2.3-0.1,3.4-0.4
		c1.1-0.3,2.1-0.8,3-1.4c0.9-0.6,1.5-1.4,2.1-2.4C48,119.5,48.2,118.4,48.2,117.1z M50.5,138.4c0-1.3-0.2-2.5-0.5-3.6
		s-0.8-2.1-1.5-2.9c-0.7-0.8-1.5-1.5-2.5-1.9c-1-0.5-2.2-0.7-3.6-0.7h-9.1v18.1h8c1.3,0,2.6-0.2,3.7-0.7c1.1-0.4,2.1-1,2.9-1.8
		c0.8-0.8,1.5-1.7,1.9-2.8C50.3,141,50.5,139.8,50.5,138.4z"/>
	<path class="st0" d="M108.2,152h-11v-4.5c-1.3,1.8-2.9,3.1-4.7,4s-3.9,1.3-6,1.3c-2.9,0-5.4-0.5-7.7-1.5c-2.3-1-4.2-2.4-5.7-4.2
		c-1.6-1.8-2.8-3.9-3.6-6.2c-0.8-2.4-1.2-5-1.2-7.7c0-2.7,0.4-5.3,1.2-7.7c0.8-2.4,2-4.5,3.6-6.2c1.6-1.8,3.5-3.2,5.7-4.2
		c2.3-1,4.8-1.5,7.7-1.5c1.5,0,2.8,0.2,4.2,0.7c1.3,0.4,2.5,1,3.6,1.8c1.1,0.8,2.1,1.8,2.9,2.9s1.5,2.4,2,3.7l4.9-8.2h4.2V152z
		 M97.1,133.1c0-1,0-2-0.1-3.1c-0.1-1.1-0.3-2.2-0.5-3.2c-0.2-1.1-0.6-2.1-1-3s-1-1.8-1.6-2.6s-1.5-1.3-2.4-1.8
		c-0.9-0.4-2-0.7-3.3-0.7c-1.2,0-2.3,0.2-3.2,0.7c-0.9,0.4-1.7,1-2.3,1.8c-0.7,0.8-1.2,1.6-1.6,2.6c-0.4,1-0.8,2-1,3.1
		c-0.2,1.1-0.4,2.1-0.5,3.2c-0.1,1.1-0.1,2.1-0.1,3c0,1,0,2,0.1,3.1c0.1,1.1,0.3,2.2,0.5,3.2c0.2,1.1,0.6,2.1,1,3.1
		c0.4,1,1,1.8,1.6,2.6c0.7,0.8,1.4,1.3,2.3,1.8c0.9,0.4,2,0.7,3.2,0.7c1.1,0,2.1-0.2,3-0.7c0.9-0.5,1.7-1.1,2.3-1.9
		c0.7-0.8,1.2-1.7,1.7-2.7s0.8-2,1.1-3.1c0.3-1.1,0.5-2.1,0.6-3.2C97,134.9,97.1,133.9,97.1,133.1z"/>
	<path class="st0" d="M152.2,123.6l-4.8,1.9c-0.8-2.4-2-4.2-3.8-5.5c-1.8-1.3-3.9-1.9-6.4-1.9c-1.3,0-2.5,0.2-3.6,0.6
		c-1.1,0.4-2,1-2.8,1.7c-0.8,0.7-1.5,1.6-2,2.6c-0.6,1-1,2-1.4,3.1c-0.3,1.1-0.6,2.3-0.8,3.4c-0.2,1.2-0.2,2.3-0.2,3.4
		c0,1.2,0.1,2.4,0.2,3.6c0.1,1.2,0.4,2.4,0.7,3.5c0.3,1.1,0.7,2.2,1.3,3.1c0.5,1,1.2,1.8,2,2.5s1.7,1.3,2.8,1.7
		c1.1,0.4,2.4,0.6,3.8,0.6c1.2,0,2.2-0.2,3.3-0.5c1-0.3,2-0.8,2.9-1.5c0.9-0.6,1.6-1.4,2.3-2.2c0.7-0.9,1.2-1.8,1.6-2.9l4.8,1.8
		c-0.7,1.7-1.7,3.2-2.9,4.5c-1.2,1.3-2.5,2.3-4,3.1c-1.5,0.8-3.1,1.4-4.8,1.8c-1.7,0.4-3.5,0.6-5.2,0.6c-2.8,0-5.5-0.5-7.9-1.5
		c-2.4-1-4.5-2.3-6.3-4.1c-1.8-1.8-3.2-3.8-4.2-6.2c-1-2.4-1.5-5-1.5-7.9c0-2.9,0.5-5.5,1.5-8c1-2.4,2.4-4.5,4.1-6.2
		c1.8-1.7,3.9-3.1,6.3-4c2.4-1,5.1-1.4,8-1.4c1.8,0,3.6,0.2,5.3,0.6c1.7,0.4,3.4,1,4.8,1.9c1.5,0.8,2.8,1.9,4,3.2
		C150.5,120.3,151.4,121.9,152.2,123.6z"/>
	<path class="st0" d="M169.7,152h-11v-51.5h11v33.8c1.8-1.3,3.6-2.7,5.3-4.3c1.7-1.6,3.4-3.2,5-4.9c1.6-1.7,3.1-3.5,4.4-5.3
		c1.4-1.8,2.5-3.6,3.6-5.4h7.5c-1.5,2.6-3.3,5.1-5.4,7.7c-2.1,2.6-4.4,5-6.8,7.3l12.4,22.7h-12.2l-8.8-15.7c-1.6,1.1-3.3,2.1-5,3.1
		V152z"/>
	<path class="st0" d="M234.5,152h-11.1v-33.3h-6.8v-4.4h6.8v-13.9h11.1v13.9h11.4v4.4h-11.4V152z"/>
	<path class="st0" d="M289.1,133.1c0,2-0.3,3.8-0.8,5.5c-0.5,1.7-1.2,3.3-2.2,4.8c-0.9,1.5-2,2.8-3.3,3.9c-1.3,1.2-2.7,2.1-4.3,3
		s-3.2,1.4-5,1.9c-1.8,0.4-3.6,0.7-5.5,0.7c-1.9,0-3.7-0.2-5.4-0.7s-3.4-1.1-5-1.9c-1.6-0.8-3-1.8-4.3-3c-1.3-1.2-2.4-2.5-3.3-3.9
		c-0.9-1.5-1.6-3-2.2-4.8c-0.5-1.7-0.8-3.6-0.8-5.5c0-1.9,0.3-3.8,0.8-5.5c0.5-1.7,1.2-3.3,2.2-4.8c0.9-1.5,2-2.8,3.3-3.9
		c1.3-1.2,2.7-2.1,4.3-3c1.6-0.8,3.2-1.4,5-1.9c1.8-0.4,3.6-0.7,5.4-0.7c1.9,0,3.7,0.2,5.5,0.7c1.8,0.4,3.4,1.1,5,1.9
		c1.6,0.8,3,1.8,4.3,3c1.3,1.2,2.4,2.5,3.3,3.9c0.9,1.5,1.6,3,2.2,4.8C288.8,129.3,289.1,131.1,289.1,133.1z M277.9,133.1
		c0-1-0.1-2.1-0.2-3.3c-0.1-1.2-0.3-2.3-0.6-3.4c-0.3-1.1-0.7-2.2-1.2-3.2c-0.5-1-1.1-1.9-1.8-2.7c-0.7-0.8-1.6-1.4-2.6-1.9
		c-1-0.5-2.2-0.7-3.5-0.7c-1.3,0-2.4,0.2-3.4,0.7c-1,0.5-1.8,1.1-2.6,1.9c-0.7,0.8-1.3,1.7-1.8,2.8c-0.5,1-0.9,2.1-1.2,3.2
		c-0.3,1.1-0.5,2.2-0.7,3.4c-0.1,1.1-0.2,2.2-0.2,3.2c0,1,0.1,2.1,0.2,3.2c0.1,1.1,0.3,2.3,0.7,3.4c0.3,1.1,0.7,2.2,1.2,3.2
		c0.5,1,1.1,1.9,1.8,2.7c0.7,0.8,1.6,1.4,2.6,1.9c1,0.5,2.1,0.7,3.4,0.7c1.3,0,2.5-0.2,3.5-0.7c1-0.5,1.9-1.1,2.6-1.9
		c0.7-0.8,1.3-1.7,1.8-2.7c0.5-1,0.9-2.1,1.2-3.2c0.3-1.1,0.5-2.3,0.6-3.4C277.8,135.2,277.9,134.1,277.9,133.1z"/>
	<path class="st0" d="M329.1,152h-11.1v-33.3h-6.8v-4.4h6.8v-13.9h11.1v13.9h11.4v4.4h-11.4V152z"/>
	<path class="st0" d="M383.8,133.1c0,2-0.3,3.8-0.8,5.5c-0.5,1.7-1.2,3.3-2.2,4.8c-0.9,1.5-2,2.8-3.3,3.9c-1.3,1.2-2.7,2.1-4.3,3
		s-3.2,1.4-5,1.9c-1.8,0.4-3.6,0.7-5.5,0.7c-1.9,0-3.7-0.2-5.4-0.7s-3.4-1.1-5-1.9c-1.6-0.8-3-1.8-4.3-3c-1.3-1.2-2.4-2.5-3.3-3.9
		c-0.9-1.5-1.6-3-2.2-4.8c-0.5-1.7-0.8-3.6-0.8-5.5c0-1.9,0.3-3.8,0.8-5.5c0.5-1.7,1.2-3.3,2.2-4.8c0.9-1.5,2-2.8,3.3-3.9
		c1.3-1.2,2.7-2.1,4.3-3c1.6-0.8,3.2-1.4,5-1.9c1.8-0.4,3.6-0.7,5.4-0.7c1.9,0,3.7,0.2,5.5,0.7c1.8,0.4,3.4,1.1,5,1.9
		c1.6,0.8,3,1.8,4.3,3c1.3,1.2,2.4,2.5,3.3,3.9c0.9,1.5,1.6,3,2.2,4.8C383.5,129.3,383.8,131.1,383.8,133.1z M372.6,133.1
		c0-1-0.1-2.1-0.2-3.3c-0.1-1.2-0.3-2.3-0.6-3.4c-0.3-1.1-0.7-2.2-1.2-3.2c-0.5-1-1.1-1.9-1.8-2.7c-0.7-0.8-1.6-1.4-2.6-1.9
		c-1-0.5-2.2-0.7-3.5-0.7c-1.3,0-2.4,0.2-3.4,0.7c-1,0.5-1.8,1.1-2.6,1.9c-0.7,0.8-1.3,1.7-1.8,2.8c-0.5,1-0.9,2.1-1.2,3.2
		c-0.3,1.1-0.5,2.2-0.7,3.4c-0.1,1.1-0.2,2.2-0.2,3.2c0,1,0.1,2.1,0.2,3.2c0.1,1.1,0.3,2.3,0.7,3.4c0.3,1.1,0.7,2.2,1.2,3.2
		c0.5,1,1.1,1.9,1.8,2.7c0.7,0.8,1.6,1.4,2.6,1.9c1,0.5,2.1,0.7,3.4,0.7c1.3,0,2.5-0.2,3.5-0.7c1-0.5,1.9-1.1,2.6-1.9
		c0.7-0.8,1.3-1.7,1.8-2.7c0.5-1,0.9-2.1,1.2-3.2c0.3-1.1,0.5-2.3,0.6-3.4C372.5,135.2,372.6,134.1,372.6,133.1z"/>
	<path class="st0" d="M430.8,133.1c0,2.7-0.4,5.3-1.2,7.7c-0.8,2.4-2,4.5-3.6,6.2c-1.6,1.8-3.5,3.2-5.7,4.2c-2.3,1-4.8,1.5-7.7,1.5
		c-2.2,0-4.2-0.4-6-1.3c-1.8-0.9-3.4-2.2-4.7-4v21.9h-11v-55h4.2l4.9,8.2c0.5-1.4,1.1-2.6,2-3.7c0.8-1.1,1.8-2.1,2.9-2.9
		c1.1-0.8,2.3-1.4,3.6-1.8c1.3-0.4,2.7-0.7,4.2-0.7c2.9,0,5.4,0.5,7.7,1.5c2.3,1,4.2,2.4,5.7,4.2c1.6,1.8,2.8,3.9,3.6,6.2
		C430.4,127.8,430.8,130.3,430.8,133.1z M419.6,133.1c0-1,0-2-0.1-3c-0.1-1.1-0.3-2.1-0.5-3.2c-0.2-1.1-0.6-2.1-1-3.1
		c-0.4-1-1-1.8-1.6-2.6s-1.4-1.3-2.4-1.8c-0.9-0.4-2-0.7-3.2-0.7c-1.3,0-2.4,0.2-3.3,0.7c-0.9,0.4-1.7,1-2.4,1.8
		c-0.7,0.8-1.2,1.6-1.6,2.6s-0.8,2-1,3c-0.2,1.1-0.4,2.1-0.5,3.2c-0.1,1.1-0.1,2.1-0.1,3.1c0,0.9,0.1,1.8,0.2,2.9
		c0.1,1.1,0.3,2.1,0.6,3.2c0.3,1.1,0.7,2.1,1.1,3.1s1,1.9,1.7,2.7c0.7,0.8,1.4,1.4,2.3,1.9c0.9,0.5,1.9,0.7,3,0.7
		c1.2,0,2.3-0.2,3.2-0.7c0.9-0.4,1.7-1,2.3-1.8s1.2-1.6,1.6-2.6c0.4-1,0.8-2,1-3.1c0.2-1.1,0.4-2.1,0.5-3.2
		C419.6,135,419.6,134,419.6,133.1z"/>
</g>
<polygon class="st0" points="187.9,75.1 259,75.1 223.5,15.7 "/>
<g>
</g>
<g>
</g>
<g>
</g>
<g>
</g>
<g>
</g>
<g>
</g>
<g>
</g>
<g>
</g>
<g>
</g>
<g>
</g>
<g>
</g>
<g>
</g>
<g>
</g>
<g>
</g>
<g>
</g>
</svg>
