<svg xmlns="http://www.w3.org/2000/svg" width="941.1" height="252" viewBox="0 0 941.1 252"><style type="text/css">.st0{fill:#231F20;} .st1{fill:#FFFFFF;} .st2{fill:none;stroke:#231F20;stroke-width:6.7329;stroke-miterlimit:10;} .st3{fill:#9C2C27;}</style><path class="st0" d="M365.2 133.5h-23.5v-74.4h-23.2v-10.8h69.9v10.9h-23.2v74.3zM457.9 87.6c0 2.8-.5 5.3-1.4 7.5-.9 2.2-2.1 4.1-3.7 5.8-1.6 1.7-3.4 3.1-5.4 4.2-2.1 1.1-4.2 2.1-6.6 2.8-2.3.7-4.7 1.3-7.2 1.6-2.5.3-4.9.5-7.2.5-3 0-5.9-.2-8.8-.6-2.9-.4-5.7-1.1-8.5-2 .4 2.6 1.1 5.1 2.1 7.4.9 2.3 2.2 4.4 3.8 6.2 1.6 1.8 3.5 3.1 5.8 4.2 2.3 1 5 1.5 8.2 1.5 2.1 0 4.1-.3 6-.9 1.9-.6 3.6-1.5 5.2-2.7 1.6-1.1 3-2.5 4.2-4.1 1.2-1.6 2.2-3.3 2.9-5.3l8.6 3.2c-1.3 3.1-3.1 5.8-5.4 8.1-2.3 2.3-4.8 4.1-7.7 5.6-2.9 1.5-5.9 2.6-9.1 3.3-3.2.7-6.4 1.1-9.6 1.1-5.2 0-10-.9-14.4-2.6-4.4-1.8-8.2-4.2-11.4-7.4-3.2-3.2-5.7-6.9-7.5-11.3-1.8-4.4-2.7-9.2-2.7-14.4s.9-10 2.7-14.4c1.8-4.4 4.3-8.1 7.5-11.3 3.2-3.2 7-5.6 11.4-7.4 4.4-1.8 9.2-2.6 14.4-2.6 2.5 0 5.1.2 7.8.5 2.6.4 5.2.9 7.7 1.7 2.5.8 4.8 1.8 7 3s4.1 2.7 5.8 4.5c1.6 1.8 2.9 3.9 3.9 6.2 1.1 2.3 1.6 5 1.6 8.1zm-49.3 13.5c2.4.6 4.9 1 7.3 1.3 2.4.3 4.9.5 7.4.5 2.6 0 5-.2 7.3-.7 2.2-.5 4.2-1.3 5.8-2.5 1.6-1.2 2.9-2.7 3.9-4.6.9-1.9 1.4-4.3 1.4-7.2 0-2.3-.3-4.5-.9-6.4-.6-1.9-1.6-3.6-2.8-5-1.2-1.4-2.8-2.5-4.6-3.2-1.8-.8-3.9-1.2-6.3-1.2-2.2 0-4.3.4-6.1 1.2-1.8.8-3.4 1.9-4.7 3.3-1.4 1.4-2.5 3-3.5 4.9-1 1.9-1.8 3.8-2.4 5.8-.6 2-1.1 4-1.4 6.1-.3 2.1-.4 4-.4 5.8v.9c-.1.3-.1.6 0 1zM540.3 94.3c0 4.6-.6 9.4-1.7 14.4s-2.7 9.9-4.7 14.7c-2 4.8-4.4 9.3-7.2 13.6-2.8 4.2-5.9 7.9-9.2 11l-7.5-4.1c1.1-2 2.1-4.2 3-6.6.9-2.4 1.8-5 2.6-7.8.8-2.7 1.5-5.6 2.1-8.5.6-2.9 1.1-5.8 1.5-8.7.4-2.9.7-5.6.9-8.3.2-2.7.3-5.2.3-7.5 0-1.5-.1-3.2-.2-4.9-.1-1.8-.4-3.5-.7-5.3-.4-1.8-.9-3.4-1.5-5.1-.6-1.6-1.5-3-2.5-4.3-1-1.2-2.3-2.2-3.8-3-1.5-.7-3.2-1.1-5.2-1.1s-3.7.4-5.3 1.3c-1.5.9-2.9 2.1-4.1 3.5-1.2 1.4-2.2 3.1-3 4.9-.9 1.9-1.5 3.8-2.1 5.7-.5 2-.9 3.9-1.2 5.8-.2 1.9-.4 3.6-.4 5.1v34.3h-20.1v-68.3h7.7l9.2 15.9c1.1-2.6 2.5-5 4.1-7.2 1.7-2.2 3.5-4 5.6-5.6 2.1-1.5 4.4-2.7 7-3.6 2.5-.8 5.3-1.2 8.3-1.2 4.7 0 8.9.8 12.4 2.3 3.5 1.5 6.4 3.7 8.8 6.4 2.3 2.7 4.1 6 5.2 9.8 1.1 3.8 1.7 7.9 1.7 12.4zM658.9 107.4c0 3.7-.5 6.9-1.4 9.7-.9 2.8-2.2 5.2-3.9 7.3-1.7 2.1-3.7 3.8-5.9 5.1-2.3 1.4-4.8 2.5-7.5 3.3-2.7.8-5.6 1.4-8.6 1.8-3 .4-6.1.5-9.2.5-4.1 0-7.9-.3-11.4-.9-3.5-.6-6.7-1.6-9.8-2.9-3.1-1.3-6-3-8.8-5.1-2.8-2.1-5.6-4.6-8.4-7.6l12.1-12.3c1.1 2.7 2.6 5.2 4.6 7.5s4.1 4.3 6.4 5.9c2.3 1.7 4.7 3 7.2 3.9s4.8 1.4 7 1.4c2.6 0 5-.2 7.3-.6 2.3-.4 4.3-1 6-1.9 1.7-.9 3-2 4-3.5 1-1.4 1.5-3.2 1.5-5.4 0-1.7-.4-3.1-1.1-4.3-.8-1.2-1.7-2.2-2.9-3s-2.6-1.6-4.1-2.2c-1.5-.6-3.1-1.1-4.7-1.5-1.6-.4-3.2-.8-4.7-1.1-1.5-.3-2.9-.7-4.1-1-2.3-.7-4.8-1.4-7.3-2.2-2.5-.8-5-1.7-7.5-2.6-2.4-1-4.8-2.1-7-3.4-2.2-1.3-4.1-2.8-5.8-4.6-1.7-1.8-3-3.8-4-6.1s-1.5-5-1.5-8c0-3.6.4-6.8 1.3-9.6s2.1-5.2 3.8-7.3c1.6-2.1 3.5-3.8 5.7-5.2 2.2-1.4 4.6-2.5 7.3-3.4 2.6-.8 5.5-1.5 8.4-1.8 3-.4 6-.6 9.1-.6 4.3 0 8.1.4 11.6 1.2 3.5.8 6.7 1.9 9.7 3.4 3 1.5 5.7 3.2 8.1 5.2 2.5 2 4.8 4.3 7 6.8l-12 12.7c-.9-2.8-2.3-5.4-3.9-7.7-1.7-2.3-3.5-4.3-5.6-5.9-2.1-1.6-4.2-2.9-6.4-3.8-2.2-.9-4.4-1.3-6.5-1.3-2.7 0-5.2.2-7.5.6-2.3.4-4.3 1-5.9 1.8-1.6.8-2.9 2-3.8 3.4s-1.4 3.2-1.4 5.4c0 1.7.3 3.1 1 4.3.7 1.2 1.6 2.2 2.7 3 1.1.8 2.4 1.5 3.8 2s2.9 1 4.4 1.4c1.5.4 3 .7 4.5 1 1.5.3 2.8.6 4.1 1 2.4.7 4.9 1.4 7.5 2.1 2.6.8 5.2 1.6 7.7 2.6s4.9 2.2 7.2 3.5c2.3 1.3 4.3 2.9 6 4.6 1.7 1.8 3.1 3.9 4.1 6.2 1 2.5 1.5 5.2 1.5 8.2zM668.2 104.2c0-3.1.3-6.4.8-9.7.5-3.4 1.3-6.7 2.3-10.1 1-3.4 2.2-6.7 3.6-9.9 1.4-3.3 3-6.4 4.8-9.4h14.6c-1 3-1.9 6-2.6 9.3-.8 3.2-1.4 6.4-2 9.6-.5 3.2-.9 6.4-1.2 9.4-.3 3.1-.4 5.9-.4 8.6 0 1.5.1 3.2.2 4.9.1 1.8.4 3.5.7 5.3s.9 3.4 1.5 5.1c.7 1.6 1.5 3.1 2.5 4.3 1 1.2 2.3 2.2 3.8 3 1.5.7 3.2 1.1 5.2 1.1s3.7-.4 5.3-1.3 2.9-2 4.1-3.5c1.2-1.4 2.2-3.1 3-4.9.8-1.9 1.5-3.8 2-5.7.5-2 .9-3.9 1.2-5.7.3-1.9.4-3.6.4-5.1v-34.4h20v68.4h-7.7l-9.2-15.9c-1.1 2.6-2.5 5-4.2 7.2-1.6 2.2-3.5 4-5.6 5.5-2.1 1.5-4.4 2.7-7 3.6-2.5.8-5.3 1.2-8.3 1.2-4.7 0-8.9-.8-12.4-2.3-3.5-1.5-6.4-3.7-8.8-6.4-2.3-2.7-4.1-6-5.2-9.7-.9-3.8-1.4-8-1.4-12.5zM813.6 111.6c0 3-.4 5.7-1.3 8s-2.1 4.3-3.6 6.1c-1.5 1.7-3.3 3.2-5.3 4.3s-4.3 2.1-6.6 2.8c-2.3.7-4.8 1.2-7.4 1.5-2.6.3-5.1.5-7.6.5-3.4 0-6.4-.2-9-.6-2.6-.4-5.1-1.1-7.5-2.1-2.4-1-4.7-2.2-7.1-3.8-2.4-1.5-5-3.4-7.8-5.6l11.7-9.5c1.1 2 2.5 3.8 4.2 5.5 1.8 1.6 3.6 3 5.5 4.2 1.9 1.2 3.7 2.1 5.5 2.7 1.8.6 3.2.9 4.3.9.9 0 1.9 0 3.1-.1s2.3-.2 3.5-.4c1.2-.2 2.3-.4 3.5-.8 1.1-.4 2.2-.8 3.1-1.4.9-.6 1.6-1.4 2.1-2.3.5-.9.8-2 .8-3.3 0-1.3-.3-2.5-1-3.5s-1.6-1.9-2.7-2.6c-1.1-.7-2.4-1.4-3.8-1.9s-2.9-1-4.3-1.4c-1.4-.4-2.8-.7-4.2-1-1.3-.3-2.5-.6-3.5-.9-1.8-.5-3.7-1-5.7-1.6s-4-1.1-6-1.8-3.9-1.5-5.7-2.5c-1.8-.9-3.4-2.1-4.7-3.4-1.4-1.3-2.4-2.9-3.3-4.7-.8-1.8-1.2-3.9-1.2-6.3 0-4.4.9-8.1 2.6-11.1 1.8-3 4.1-5.4 7-7.2 2.9-1.8 6.2-3.1 9.8-3.8 3.7-.7 7.4-1.1 11.2-1.1 2.6 0 5.3.3 8.2.8 2.9.5 5.7 1.3 8.4 2.4s5.3 2.3 7.6 3.8c2.4 1.5 4.3 3.2 5.9 5.1l-11.7 9.6c-.9-2.4-2-4.4-3.4-6.1-1.4-1.7-2.9-3.1-4.6-4.2-1.6-1.1-3.3-1.9-5-2.4-1.7-.5-3.3-.8-4.8-.8-1.4 0-3 .1-4.8.2-1.8.1-3.4.5-5 1-1.6.6-2.9 1.4-4 2.5s-1.6 2.7-1.6 4.6c0 1.4.3 2.6 1 3.6.6 1 1.5 1.9 2.6 2.6 1.1.7 2.3 1.3 3.6 1.8 1.4.5 2.8.9 4.2 1.3 1.4.4 2.8.7 4.1 1 1.3.3 2.5.6 3.6.9 1.8.5 3.7 1 5.8 1.6 2 .5 4 1.1 6 1.8s3.9 1.5 5.7 2.4c1.8.9 3.4 2.1 4.8 3.4 1.4 1.3 2.5 2.9 3.3 4.7 1.1 2.1 1.5 4.2 1.5 6.6zM896.1 94.3c0 4.6-.6 9.4-1.7 14.4s-2.7 9.9-4.7 14.7c-2 4.8-4.4 9.3-7.2 13.6-2.8 4.2-5.9 7.9-9.2 11l-7.5-4.1c1.1-2 2.1-4.2 3-6.6.9-2.4 1.8-5 2.6-7.8.8-2.7 1.5-5.6 2.1-8.5.6-2.9 1.1-5.8 1.5-8.7.4-2.9.7-5.6.9-8.3.2-2.7.3-5.2.3-7.5 0-1.5-.1-3.2-.2-4.9-.1-1.8-.4-3.5-.7-5.3-.4-1.8-.9-3.4-1.5-5.1-.6-1.6-1.5-3-2.5-4.3-1-1.2-2.3-2.2-3.8-3-1.5-.7-3.2-1.1-5.2-1.1s-3.7.4-5.3 1.3c-1.5.9-2.9 2.1-4.1 3.5-1.2 1.4-2.2 3.1-3 4.9-.8 1.9-1.5 3.8-2.1 5.7-.5 2-.9 3.9-1.2 5.8-.2 1.9-.4 3.6-.4 5.1v34.3h-20.1v-93.4h20v35.2c2.6-3.7 5.7-6.6 9.4-8.7 3.7-2 7.9-3 12.4-3 4.7 0 8.9.8 12.4 2.3 3.5 1.5 6.4 3.7 8.8 6.4 2.3 2.7 4.1 6 5.2 9.8 1.2 3.7 1.8 7.8 1.8 12.3zM930.3 48.6c0 1.5-.3 2.9-.9 4.3-.6 1.3-1.3 2.5-2.3 3.5-1 1-2.2 1.8-3.5 2.3-1.3.6-2.8.9-4.3.9s-2.9-.3-4.2-.9c-1.3-.6-2.5-1.4-3.5-2.3-1-1-1.8-2.1-2.3-3.5-.6-1.3-.9-2.8-.9-4.3s.3-2.9.9-4.2c.6-1.3 1.4-2.5 2.3-3.5 1-1 2.1-1.8 3.5-2.3 1.3-.6 2.7-.9 4.2-.9s2.9.3 4.3.9c1.3.6 2.5 1.4 3.5 2.3 1 1 1.8 2.1 2.3 3.5.6 1.3.9 2.7.9 4.2zm-.9 84.9h-20.1v-68.3h20.1v68.3zM481.4 195.8h-10.1v-36.5h18c1.7 0 3.3.2 4.9.6 1.6.4 3 1 4.2 1.9 1.2.9 2.2 2 2.9 3.3.7 1.4 1.1 3 1.1 4.9 0 1.5-.3 2.9-1 4.2-.6 1.3-1.5 2.5-2.5 3.6-1.1 1-2.3 1.9-3.6 2.6s-2.8 1.1-4.3 1.4c.7 1.1 1.3 2.2 2.1 3.2.7 1 1.4 1.9 2.2 2.8.7.9 1.5 1.7 2.2 2.4.7.7 1.4 1.4 2.1 2 1.6 1.4 3.1 2.6 4.6 3.7h-12.6c-1-1-2-2.1-2.9-3.5-.8-1.1-1.6-2.6-2.3-4.3-.8-1.7-1.4-3.7-1.8-5.9h-3.1v13.6zm10.7-25.8c0-2.4-.6-4.3-1.8-5.4-1.2-1.1-3-1.7-5.4-1.7h-3.6v15.9h3.6c1.3 0 2.4-.2 3.3-.7.9-.5 1.6-1.1 2.2-1.9.6-.8 1-1.7 1.3-2.8.3-1.2.4-2.3.4-3.4zM535.4 176.1c0 1.2-.2 2.3-.6 3.2-.4.9-.9 1.8-1.6 2.5-.7.7-1.4 1.3-2.3 1.8s-1.8.9-2.8 1.2c-1 .3-2 .5-3.1.7-1.1.1-2.1.2-3.1.2-1.3 0-2.5-.1-3.8-.3-1.2-.2-2.5-.5-3.7-.8.2 1.1.5 2.2.9 3.2s.9 1.9 1.6 2.6c.7.8 1.5 1.3 2.5 1.8 1 .4 2.2.7 3.5.7.9 0 1.8-.1 2.6-.4.8-.3 1.6-.6 2.2-1.1.7-.5 1.3-1.1 1.8-1.7.5-.7.9-1.4 1.3-2.3l3.7 1.4c-.6 1.3-1.3 2.5-2.3 3.5-1 1-2.1 1.8-3.3 2.4-1.2.6-2.5 1.1-3.9 1.4-1.4.3-2.7.5-4.1.5-2.2 0-4.3-.4-6.2-1.1-1.9-.8-3.5-1.8-4.9-3.2s-2.4-3-3.2-4.8c-.8-1.9-1.2-3.9-1.2-6.2 0-2.2.4-4.3 1.2-6.2.8-1.9 1.9-3.5 3.2-4.8s3-2.4 4.9-3.2c1.9-.8 4-1.1 6.2-1.1 1.1 0 2.2.1 3.3.2 1.1.2 2.2.4 3.3.7 1.1.3 2.1.8 3 1.3.9.5 1.8 1.2 2.5 1.9.7.8 1.3 1.7 1.7 2.7s.7 2 .7 3.3zm-21.1 5.8l3.1.6c1 .1 2.1.2 3.2.2s2.2-.1 3.1-.3c1-.2 1.8-.6 2.5-1.1.7-.5 1.3-1.2 1.7-2 .4-.8.6-1.9.6-3.1 0-1-.1-1.9-.4-2.7-.3-.8-.7-1.5-1.2-2.1-.5-.6-1.2-1.1-2-1.4-.8-.3-1.7-.5-2.7-.5-1 0-1.8.2-2.6.5-.8.4-1.4.8-2 1.4-.6.6-1.1 1.3-1.5 2.1-.4.8-.8 1.6-1 2.5s-.5 1.7-.6 2.6c-.1.9-.2 1.7-.2 2.5v.4c-.1.2-.1.3 0 .4zM566 186.5c0 1.3-.2 2.4-.6 3.4-.4 1-.9 1.9-1.5 2.6-.6.7-1.4 1.4-2.3 1.8-.9.5-1.8.9-2.8 1.2-1 .3-2.1.5-3.2.7-1.1.1-2.2.2-3.3.2-1.5 0-2.7-.1-3.9-.3-1.1-.2-2.2-.5-3.2-.9s-2-1-3-1.6c-1-.7-2.1-1.5-3.4-2.4l5-4.1c.5.9 1.1 1.6 1.8 2.3.8.7 1.5 1.3 2.3 1.8.8.5 1.6.9 2.4 1.2.8.3 1.4.4 1.9.4h1.3l1.5-.1 1.5-.3c.5-.1.9-.4 1.3-.6.4-.3.7-.6.9-1 .2-.4.3-.9.3-1.4 0-.6-.1-1.1-.4-1.5-.3-.4-.7-.8-1.2-1.1-.5-.3-1-.6-1.6-.8l-1.8-.6c-.6-.2-1.2-.3-1.8-.4-.6-.1-1.1-.2-1.5-.4-.8-.2-1.6-.4-2.5-.7-.9-.2-1.7-.5-2.6-.8-.8-.3-1.7-.6-2.4-1-.8-.4-1.4-.9-2-1.5-.6-.6-1-1.2-1.4-2-.3-.8-.5-1.7-.5-2.7 0-1.9.4-3.5 1.1-4.8.8-1.3 1.7-2.3 3-3.1 1.2-.8 2.6-1.3 4.2-1.6 1.6-.3 3.2-.5 4.8-.5 1.1 0 2.3.1 3.5.3 1.2.2 2.4.6 3.6 1 1.2.4 2.3 1 3.3 1.6 1 .6 1.9 1.4 2.5 2.2l-5 4.1c-.4-1-.9-1.9-1.5-2.6-.6-.7-1.3-1.3-2-1.8s-1.4-.8-2.2-1c-.7-.2-1.4-.3-2-.3-.6 0-1.3 0-2.1.1-.8 0-1.5.2-2.1.4-.7.2-1.2.6-1.7 1.1-.5.5-.7 1.1-.7 2 0 .6.1 1.1.4 1.6.3.4.6.8 1.1 1.1.5.3 1 .6 1.6.8l1.8.6c.6.2 1.2.3 1.8.4s1.1.2 1.5.4c.8.2 1.6.4 2.5.7.9.2 1.7.5 2.6.8.8.3 1.7.6 2.4 1 .8.4 1.5.9 2.1 1.5.6.6 1.1 1.2 1.4 2s.8 1.5.8 2.6zM582.4 195.8h-8.6v-25.9h-5.3v-3.4h5.3v-10.8h8.6v10.8h8.9v3.4h-8.9v25.9zM623.8 195.8h-8.6v-3.5c-1 1.4-2.2 2.4-3.7 3.1-1.4.7-3 1-4.7 1-2.2 0-4.2-.4-6-1.2-1.8-.8-3.2-1.9-4.5-3.3-1.2-1.4-2.1-3-2.8-4.9-.6-1.9-1-3.9-1-6s.3-4.1 1-6c.6-1.9 1.6-3.5 2.8-4.9 1.2-1.4 2.7-2.5 4.5-3.3 1.8-.8 3.8-1.2 6-1.2 1.1 0 2.2.2 3.2.5s2 .8 2.8 1.4c.9.6 1.6 1.4 2.3 2.2.7.9 1.2 1.8 1.5 2.9l3.8-6.4h3.3v29.6zm-8.6-14.7c0-.8 0-1.6-.1-2.4-.1-.8-.2-1.7-.4-2.5s-.4-1.6-.8-2.4c-.3-.8-.8-1.4-1.3-2-.5-.6-1.1-1-1.9-1.4s-1.6-.5-2.5-.5-1.8.2-2.5.5-1.3.8-1.8 1.4c-.5.6-.9 1.3-1.3 2-.3.8-.6 1.6-.8 2.4-.2.8-.3 1.7-.4 2.5-.1.8-.1 1.6-.1 2.4 0 .7 0 1.5.1 2.4.1.8.2 1.7.4 2.5s.4 1.6.8 2.4c.3.8.8 1.4 1.3 2 .5.6 1.1 1 1.8 1.4.7.4 1.5.5 2.5.5.9 0 1.7-.2 2.3-.5.7-.4 1.3-.9 1.8-1.5s1-1.3 1.3-2.1l.9-2.4c.2-.8.4-1.7.5-2.5.1-.8.2-1.5.2-2.2zM629.5 183.3c0-1.3.1-2.7.3-4.2.2-1.4.6-2.9 1-4.3s1-2.9 1.6-4.3c.6-1.4 1.3-2.7 2.1-4h6.3c-.4 1.3-.8 2.6-1.1 4-.3 1.4-.6 2.8-.8 4.1-.2 1.4-.4 2.7-.5 4-.1 1.3-.2 2.5-.2 3.7 0 .7 0 1.4.1 2.1l.3 2.3c.2.8.4 1.5.6 2.2.3.7.6 1.3 1.1 1.8s1 1 1.6 1.3c.6.3 1.4.5 2.2.5.8 0 1.6-.2 2.3-.6.7-.4 1.3-.9 1.8-1.5s.9-1.3 1.3-2.1l.9-2.4c.2-.8.4-1.7.5-2.5.1-.8.2-1.5.2-2.2v-14.7h8.6v29.3h-3.3l-3.9-6.8c-.5 1.1-1.1 2.2-1.8 3.1-.7.9-1.5 1.7-2.4 2.4-.9.7-1.9 1.2-3 1.5-1.1.4-2.3.5-3.5.5-2 0-3.8-.3-5.3-1s-2.8-1.6-3.8-2.7c-1-1.2-1.7-2.6-2.2-4.2-.8-1.6-1-3.4-1-5.3zM691.5 169.1l-4.8 8c-.2-.7-.5-1.4-.8-2.3s-.7-1.6-1.2-2.4c-.5-.7-1-1.4-1.7-1.9s-1.4-.7-2.3-.7c-.8 0-1.5.2-2.1.6-.6.4-1.1.9-1.5 1.6-.4.7-.7 1.4-1 2.2-.3.8-.5 1.7-.6 2.5l-.3 2.4c-.1.8-.1 1.4-.1 2v14.7h-8.6v-29.3h3.3l3.5 6.8c.5-1.1 1-2.1 1.6-3 .6-.9 1.3-1.7 2.1-2.4s1.7-1.2 2.7-1.6c1-.4 2.1-.6 3.4-.6.7 0 1.4.1 2.2.2.8.1 1.6.3 2.4.6.8.3 1.5.6 2.2 1 .7.5 1.2 1 1.6 1.6zM724 195.8h-8.6v-3.5c-1 1.4-2.2 2.4-3.7 3.1-1.4.7-3 1-4.7 1-2.2 0-4.2-.4-6-1.2-1.8-.8-3.2-1.9-4.5-3.3-1.2-1.4-2.1-3-2.8-4.9-.6-1.9-1-3.9-1-6s.3-4.1 1-6c.6-1.9 1.6-3.5 2.8-4.9 1.2-1.4 2.7-2.5 4.5-3.3 1.8-.8 3.8-1.2 6-1.2 1.1 0 2.2.2 3.2.5s2 .8 2.8 1.4c.9.6 1.6 1.4 2.3 2.2.6.9 1.2 1.8 1.5 2.9l3.8-6.4h3.3v29.6zm-8.7-14.7c0-.8 0-1.6-.1-2.4-.1-.8-.2-1.7-.4-2.5s-.4-1.6-.8-2.4c-.3-.8-.8-1.4-1.3-2-.5-.6-1.1-1-1.9-1.4s-1.6-.5-2.5-.5-1.8.2-2.5.5-1.3.8-1.8 1.4c-.5.6-.9 1.3-1.3 2-.3.8-.6 1.6-.8 2.4-.2.8-.3 1.7-.4 2.5-.1.8-.1 1.6-.1 2.4 0 .7 0 1.5.1 2.4.1.8.2 1.7.4 2.5s.4 1.6.8 2.4c.3.8.7 1.4 1.3 2 .5.6 1.1 1 1.8 1.4.7.4 1.5.5 2.5.5.9 0 1.7-.2 2.3-.5.7-.4 1.3-.9 1.8-1.5s1-1.3 1.3-2.1c.4-.8.6-1.6.9-2.4.2-.8.4-1.7.5-2.5.2-.8.2-1.5.2-2.2zM761.1 179c0 2-.2 4-.7 6.2-.5 2.2-1.2 4.3-2 6.3-.9 2.1-1.9 4-3.1 5.8-1.2 1.8-2.5 3.4-4 4.7l-3.2-1.7c.5-.8.9-1.8 1.3-2.8.4-1 .8-2.2 1.1-3.3l.9-3.6c.3-1.3.5-2.5.7-3.7.2-1.2.3-2.4.4-3.6.1-1.2.1-2.2.1-3.2 0-.7 0-1.4-.1-2.1s-.2-1.5-.3-2.3c-.2-.8-.4-1.5-.6-2.2s-.6-1.3-1.1-1.8c-.4-.5-1-.9-1.6-1.3-.6-.3-1.4-.5-2.2-.5-.8 0-1.6.2-2.3.6s-1.2.9-1.8 1.5c-.5.6-.9 1.3-1.3 2.1s-.7 1.6-.9 2.4c-.2.8-.4 1.7-.5 2.5-.1.8-.2 1.5-.2 2.2v14.7h-8.6v-29.3h3.3l3.9 6.8c.5-1.1 1.1-2.2 1.8-3.1.7-.9 1.5-1.7 2.4-2.4.9-.7 1.9-1.2 3-1.5 1.1-.4 2.3-.5 3.5-.5 2 0 3.8.3 5.3 1s2.8 1.6 3.8 2.8c1 1.2 1.7 2.6 2.2 4.2.5 1.5.8 3.2.8 5.1zM777.5 195.8h-8.6v-25.9h-5.3v-3.4h5.3v-10.8h8.6v10.8h8.9v3.4h-8.9v25.9z"/><circle class="st1" cx="186.6" cy="134.6" r="109.7"/><circle class="st2" cx="186.6" cy="134.6" r="92.5"/><path class="st0" d="M138.4 63.3c4.9 2.7 49.1 3.2 72.3 1.1 28.6-2.6 37.4 9.5 32.7 21.3-10.6-.4-27.1-.9-37 .4-9.7 1.3-18.5 4.3-24.1 8 3.4-5.2 10.1-8.6 12.9-9.9-3.9-.2-21.3.4-19.6 28.4 12.1-4.1 15.9-3.2 25.4-10.5s21.7-12.1 25.8-4.5c4.1 7.7 3.7 12.9-12 14.9-15.7 2.1-26.3 7.5-29.1 9.9s-3.4 5.2-.9 7.8c2.4 2.6 27.6 24.3 39 30.4 11.4 6.2 31.2 10.8 37.4 12.7 6.2 1.9 14.2 5.8 14.2 12.1 0 6.4-14.2 1.9-22.8 2.1-8.6.2-32.1 1.7-42-10.3-9.9-12-13.1-17.7-18.3-21.3-5.2-3.5-11.8-7.3-14-12.7-2.2-5.4-4.7-8.8-6.7-1.3-2.1 7.5-14.6 38.8-30.1 44.5-15.5 5.6-32.7-6-34.9-7.8 5.6.2 19.6 1.1 28.6-8 9-9.2 16.4-20.2 16.4-28.8-5.4 2.6-24.8 16.4-29.1 6.2-4.3-10.3 1.1-12 6.5-12.7 5.4-.7 17.9-3.7 20.2-9.3 2.2-5.6.6-5.8.7-7.5.2-1.7 0-1.7 2.2-1.9s3.9.2 5 .2 2.8-.9 3.2-4.9c.4-3.9 1.3-15.3 1.7-18.1-5.6 2.4-15.3 4.7-26.1-6.4s-10.3-24.1-8.2-26.5c1.9-2.3 7 .4 10.7 2.4z"/><ellipse class="st0" cx="181" cy="194.7" rx="11.5" ry="10.4"/><ellipse class="st1" cx="181" cy="194.7" rx="9" ry="8.1"/><path class="st0" d="M186.5 199l-2.8 2c-1.2.4-3.5-1.2-3.9-2.4v-3.5c-.4-1.2-1.1-3.5.1-3.8l3.8-1.2c1.2-.4 3.4.5 3.8 1.7l-.3 3.3c.3 1.2.5 3.5-.7 3.9z"/><path class="st3" d="M63.1 16.5l14.2-10.7 113.9 184.2zM10.8 58.6l11.7-13.5 150.2 156.1z"/><path class="st0" d="M175.2 197l-.7-1-.6-.6c-1-.7-1.8-1.7-1.2-2.8.2-.3.4-.5.7-.7 1-.7 2.4-.5 3.3.4l1.7 1.9c.2.2.3.3.5.4 1 .6 1.4 1.1.7 2.2-.4.6-1.1 1.1-1.9 1.2-1 .1-1.9-.3-2.5-1z"/></svg>