<?xml version="1.0" encoding="utf-8"?>
<!-- Generator: Adobe Illustrator 18.1.1, SVG Export Plug-In . SVG Version: 6.00 Build 0)  -->
<!DOCTYPE svg PUBLIC "-//W3C//DTD SVG 1.1//EN" "http://www.w3.org/Graphics/SVG/1.1/DTD/svg11.dtd">
<svg version="1.1" id="Layer_1" xmlns="http://www.w3.org/2000/svg" xmlns:xlink="http://www.w3.org/1999/xlink" x="0px" y="0px"
	 width="941.1px" height="344.1px" viewBox="0 0 941.1 344.1" style="enable-background:new 0 0 941.1 344.1;" xml:space="preserve"
	>
<style type="text/css">
	.st0{fill:#231F20;}
	.st1{fill:#FFFFFF;}
	.st2{fill:none;stroke:#231F20;stroke-width:6.7329;stroke-miterlimit:10;}
	.st3{fill:#9C2C27;}
</style>
<g>
	<path class="st0" d="M365.2,180.5h-23.5v-74.3h-23.2V95.3h69.9v10.9h-23.2V180.5z"/>
	<path class="st0" d="M457.9,134.5c0,2.8-0.5,5.3-1.4,7.5c-0.9,2.2-2.1,4.1-3.7,5.8c-1.6,1.7-3.4,3.1-5.4,4.2
		c-2.1,1.1-4.2,2.1-6.6,2.8c-2.3,0.7-4.7,1.3-7.2,1.6c-2.5,0.3-4.9,0.5-7.2,0.5c-3,0-5.9-0.2-8.8-0.6c-2.9-0.4-5.7-1.1-8.5-2
		c0.4,2.6,1.1,5.1,2.1,7.4c0.9,2.3,2.2,4.4,3.8,6.2c1.6,1.8,3.5,3.1,5.8,4.2c2.3,1,5,1.5,8.2,1.5c2.1,0,4.1-0.3,6-0.9
		c1.9-0.6,3.6-1.5,5.2-2.7c1.6-1.1,3-2.5,4.2-4.1c1.2-1.6,2.2-3.3,2.9-5.3l8.6,3.2c-1.3,3.1-3.1,5.8-5.4,8.1
		c-2.3,2.3-4.8,4.1-7.7,5.6c-2.9,1.5-5.9,2.6-9.1,3.3c-3.2,0.7-6.4,1.1-9.6,1.1c-5.2,0-10-0.9-14.4-2.6c-4.4-1.8-8.2-4.2-11.4-7.4
		c-3.2-3.2-5.7-6.9-7.5-11.3c-1.8-4.4-2.7-9.2-2.7-14.4s0.9-10,2.7-14.4c1.8-4.4,4.3-8.1,7.5-11.3c3.2-3.2,7-5.6,11.4-7.4
		c4.4-1.8,9.2-2.6,14.4-2.6c2.5,0,5.1,0.2,7.8,0.5c2.6,0.4,5.2,0.9,7.7,1.7c2.5,0.8,4.8,1.8,7,3c2.2,1.2,4.1,2.7,5.8,4.5
		c1.6,1.8,2.9,3.9,3.9,6.2C457.4,128.8,457.9,131.5,457.9,134.5z M408.6,148c2.4,0.6,4.9,1,7.3,1.3c2.4,0.3,4.9,0.5,7.4,0.5
		c2.6,0,5-0.2,7.3-0.7c2.2-0.5,4.2-1.3,5.8-2.5c1.6-1.2,2.9-2.7,3.9-4.6c0.9-1.9,1.4-4.3,1.4-7.2c0-2.3-0.3-4.5-0.9-6.4
		c-0.6-1.9-1.6-3.6-2.8-5c-1.2-1.4-2.8-2.5-4.6-3.2c-1.8-0.8-3.9-1.2-6.3-1.2c-2.2,0-4.3,0.4-6.1,1.2c-1.8,0.8-3.4,1.9-4.7,3.3
		c-1.4,1.4-2.5,3-3.5,4.9c-1,1.9-1.8,3.8-2.4,5.8c-0.6,2-1.1,4-1.4,6.1c-0.3,2.1-0.4,4-0.4,5.8c0,0.3,0,0.6,0,0.9
		C408.5,147.4,408.5,147.7,408.6,148z"/>
	<path class="st0" d="M540.3,141.3c0,4.6-0.6,9.4-1.7,14.4c-1.1,5-2.7,9.9-4.7,14.7c-2,4.8-4.4,9.3-7.2,13.6
		c-2.8,4.2-5.9,7.9-9.2,11l-7.5-4.1c1.1-2,2.1-4.2,3-6.6c0.9-2.4,1.8-5,2.6-7.8c0.8-2.7,1.5-5.6,2.1-8.5c0.6-2.9,1.1-5.8,1.5-8.7
		c0.4-2.9,0.7-5.6,0.9-8.3c0.2-2.7,0.3-5.2,0.3-7.5c0-1.5-0.1-3.2-0.2-4.9c-0.1-1.8-0.4-3.5-0.7-5.3c-0.4-1.8-0.9-3.4-1.5-5.1
		c-0.6-1.6-1.5-3-2.5-4.3c-1-1.2-2.3-2.2-3.8-3c-1.5-0.7-3.2-1.1-5.2-1.1c-2,0-3.7,0.4-5.3,1.3c-1.5,0.9-2.9,2.1-4.1,3.5
		c-1.2,1.4-2.2,3.1-3,4.9c-0.9,1.9-1.5,3.8-2.1,5.7c-0.5,2-0.9,3.9-1.2,5.8s-0.4,3.6-0.4,5.1v34.3h-20.1v-68.4h7.7l9.2,15.9
		c1.1-2.6,2.5-5,4.1-7.2c1.7-2.2,3.5-4,5.6-5.6c2.1-1.5,4.4-2.7,7-3.6c2.5-0.8,5.3-1.2,8.3-1.2c4.7,0,8.9,0.8,12.4,2.3
		c3.5,1.5,6.4,3.7,8.8,6.4c2.3,2.7,4.1,6,5.2,9.8C539.7,132.7,540.3,136.8,540.3,141.3z"/>
	<path class="st0" d="M658.9,154.4c0,3.7-0.5,6.9-1.4,9.7c-0.9,2.8-2.2,5.2-3.9,7.3c-1.7,2.1-3.7,3.8-5.9,5.1
		c-2.3,1.4-4.8,2.5-7.5,3.3c-2.7,0.8-5.6,1.4-8.6,1.8c-3,0.4-6.1,0.5-9.2,0.5c-4.1,0-7.9-0.3-11.4-0.9c-3.5-0.6-6.7-1.6-9.8-2.9
		c-3.1-1.3-6-3-8.8-5.1c-2.8-2.1-5.6-4.6-8.4-7.6l12.1-12.3c1.1,2.7,2.6,5.2,4.6,7.5c1.9,2.3,4.1,4.3,6.4,5.9c2.3,1.7,4.7,3,7.2,3.9
		c2.5,0.9,4.8,1.4,7,1.4c2.6,0,5-0.2,7.3-0.6c2.3-0.4,4.3-1,6-1.9c1.7-0.9,3-2,4-3.5c1-1.4,1.5-3.2,1.5-5.4c0-1.7-0.4-3.1-1.1-4.3
		s-1.7-2.2-2.9-3c-1.2-0.8-2.6-1.6-4.1-2.2c-1.5-0.6-3.1-1.1-4.7-1.5c-1.6-0.4-3.2-0.8-4.7-1.1c-1.5-0.3-2.9-0.7-4.1-1
		c-2.3-0.7-4.8-1.4-7.3-2.2c-2.5-0.8-5-1.7-7.5-2.6c-2.4-1-4.8-2.1-7-3.4c-2.2-1.3-4.1-2.8-5.8-4.6c-1.7-1.8-3-3.8-4-6.1
		c-1-2.3-1.5-5-1.5-8c0-3.6,0.4-6.8,1.3-9.6c0.9-2.8,2.1-5.2,3.8-7.3c1.6-2.1,3.5-3.8,5.7-5.2c2.2-1.4,4.6-2.5,7.3-3.4
		c2.6-0.8,5.5-1.5,8.4-1.8c3-0.4,6-0.6,9.1-0.6c4.3,0,8.1,0.4,11.6,1.2c3.5,0.8,6.7,1.9,9.7,3.4c3,1.5,5.7,3.2,8.1,5.2
		c2.5,2,4.8,4.3,7,6.8L645.4,122c-0.9-2.8-2.3-5.4-3.9-7.7c-1.7-2.3-3.5-4.3-5.6-5.9s-4.2-2.9-6.4-3.8c-2.2-0.9-4.4-1.3-6.5-1.3
		c-2.7,0-5.2,0.2-7.5,0.6c-2.3,0.4-4.3,1-5.9,1.8c-1.6,0.8-2.9,2-3.8,3.4s-1.4,3.2-1.4,5.4c0,1.7,0.3,3.1,1,4.3s1.6,2.2,2.7,3
		c1.1,0.8,2.4,1.5,3.8,2c1.4,0.5,2.9,1,4.4,1.4c1.5,0.4,3,0.7,4.5,1c1.5,0.3,2.8,0.6,4.1,1c2.4,0.7,4.9,1.4,7.5,2.1
		c2.6,0.8,5.2,1.6,7.7,2.6c2.5,1,4.9,2.2,7.2,3.5c2.3,1.3,4.3,2.9,6,4.6c1.7,1.8,3.1,3.9,4.1,6.2
		C658.4,148.7,658.9,151.4,658.9,154.4z"/>
	<path class="st0" d="M668.2,151.2c0-3.1,0.3-6.4,0.8-9.7c0.5-3.4,1.3-6.7,2.3-10.1c1-3.4,2.2-6.7,3.6-9.9c1.4-3.3,3-6.4,4.8-9.4
		h14.6c-1,3-1.9,6-2.6,9.3c-0.8,3.2-1.4,6.4-2,9.6c-0.5,3.2-0.9,6.4-1.2,9.4c-0.3,3.1-0.4,5.9-0.4,8.6c0,1.5,0.1,3.2,0.2,4.9
		c0.1,1.8,0.4,3.5,0.7,5.3s0.9,3.4,1.5,5.1c0.7,1.6,1.5,3.1,2.5,4.3c1,1.2,2.3,2.2,3.8,3c1.5,0.7,3.2,1.1,5.2,1.1
		c2,0,3.7-0.4,5.3-1.3c1.6-0.9,2.9-2,4.1-3.5c1.2-1.4,2.2-3.1,3-4.9c0.8-1.9,1.5-3.8,2-5.7c0.5-2,0.9-3.9,1.2-5.7
		c0.3-1.9,0.4-3.6,0.4-5.1v-34.3h20v68.4h-7.7l-9.2-15.9c-1.1,2.6-2.5,5-4.2,7.2c-1.6,2.2-3.5,4-5.6,5.5c-2.1,1.5-4.4,2.7-7,3.6
		c-2.5,0.8-5.3,1.2-8.3,1.2c-4.7,0-8.9-0.8-12.4-2.3c-3.5-1.5-6.4-3.7-8.8-6.4c-2.3-2.7-4.1-6-5.2-9.7
		C668.7,159.9,668.2,155.7,668.2,151.2z"/>
	<path class="st0" d="M813.6,158.6c0,3-0.4,5.7-1.3,8c-0.9,2.3-2.1,4.3-3.6,6.1c-1.5,1.7-3.3,3.2-5.3,4.3s-4.3,2.1-6.6,2.8
		c-2.3,0.7-4.8,1.2-7.4,1.5c-2.6,0.3-5.1,0.5-7.6,0.5c-3.4,0-6.4-0.2-9-0.6c-2.6-0.4-5.1-1.1-7.5-2.1c-2.4-1-4.7-2.2-7.1-3.8
		c-2.4-1.5-5-3.4-7.8-5.6l11.7-9.5c1.1,2,2.5,3.8,4.2,5.5c1.8,1.6,3.6,3,5.5,4.2c1.9,1.2,3.7,2.1,5.5,2.7c1.8,0.6,3.2,0.9,4.3,0.9
		c0.9,0,1.9,0,3.1-0.1c1.1-0.1,2.3-0.2,3.5-0.4c1.2-0.2,2.3-0.4,3.5-0.8c1.1-0.4,2.2-0.8,3.1-1.4c0.9-0.6,1.6-1.4,2.1-2.3
		c0.5-0.9,0.8-2,0.8-3.3c0-1.3-0.3-2.5-1-3.5c-0.7-1-1.6-1.9-2.7-2.6c-1.1-0.7-2.4-1.4-3.8-1.9c-1.4-0.5-2.9-1-4.3-1.4
		c-1.4-0.4-2.8-0.7-4.2-1c-1.3-0.3-2.5-0.6-3.5-0.9c-1.8-0.5-3.7-1-5.7-1.6s-4-1.1-6-1.8c-2-0.7-3.9-1.5-5.7-2.5
		c-1.8-0.9-3.4-2.1-4.7-3.4c-1.4-1.3-2.4-2.9-3.3-4.7c-0.8-1.8-1.2-3.9-1.2-6.3c0-4.4,0.9-8.1,2.6-11.1c1.8-3,4.1-5.4,7-7.2
		c2.9-1.8,6.2-3.1,9.8-3.8c3.7-0.7,7.4-1.1,11.2-1.1c2.6,0,5.3,0.3,8.2,0.8c2.9,0.5,5.7,1.3,8.4,2.4c2.7,1,5.3,2.3,7.6,3.8
		c2.4,1.5,4.3,3.2,5.9,5.1l-11.7,9.6c-0.9-2.4-2-4.4-3.4-6.1c-1.4-1.7-2.9-3.1-4.6-4.2c-1.6-1.1-3.3-1.9-5-2.4
		c-1.7-0.5-3.3-0.8-4.8-0.8c-1.4,0-3,0.1-4.8,0.2c-1.8,0.1-3.4,0.5-5,1c-1.6,0.6-2.9,1.4-4,2.5c-1.1,1.1-1.6,2.7-1.6,4.6
		c0,1.4,0.3,2.6,1,3.6c0.6,1,1.5,1.9,2.6,2.6c1.1,0.7,2.3,1.3,3.6,1.8c1.4,0.5,2.8,0.9,4.2,1.3c1.4,0.4,2.8,0.7,4.1,1
		c1.3,0.3,2.5,0.6,3.6,0.9c1.8,0.5,3.7,1,5.8,1.6c2,0.5,4,1.1,6,1.8c2,0.7,3.9,1.5,5.7,2.4c1.8,0.9,3.4,2.1,4.8,3.4
		c1.4,1.3,2.5,2.9,3.3,4.7C813.2,154.1,813.6,156.2,813.6,158.6z"/>
	<path class="st0" d="M896.1,141.3c0,4.6-0.6,9.4-1.7,14.4c-1.1,5-2.7,9.9-4.7,14.7c-2,4.8-4.4,9.3-7.2,13.6
		c-2.8,4.2-5.9,7.9-9.2,11l-7.5-4.1c1.1-2,2.1-4.2,3-6.6c0.9-2.4,1.8-5,2.6-7.8c0.8-2.7,1.5-5.6,2.1-8.5c0.6-2.9,1.1-5.8,1.5-8.7
		c0.4-2.9,0.7-5.6,0.9-8.3c0.2-2.7,0.3-5.2,0.3-7.5c0-1.5-0.1-3.2-0.2-4.9c-0.1-1.8-0.4-3.5-0.7-5.3c-0.4-1.8-0.9-3.4-1.5-5.1
		c-0.6-1.6-1.5-3-2.5-4.3c-1-1.2-2.3-2.2-3.8-3c-1.5-0.7-3.2-1.1-5.2-1.1c-2,0-3.7,0.4-5.3,1.3c-1.5,0.9-2.9,2.1-4.1,3.5
		c-1.2,1.4-2.2,3.1-3,4.9c-0.8,1.9-1.5,3.8-2.1,5.7c-0.5,2-0.9,3.9-1.2,5.8c-0.2,1.9-0.4,3.6-0.4,5.1v34.3h-20.1V87h20v35.2
		c2.6-3.7,5.7-6.6,9.4-8.7c3.7-2,7.9-3,12.4-3c4.7,0,8.9,0.8,12.4,2.3c3.5,1.5,6.4,3.7,8.8,6.4c2.3,2.7,4.1,6,5.2,9.8
		C895.5,132.7,896.1,136.8,896.1,141.3z"/>
	<path class="st0" d="M930.3,95.6c0,1.5-0.3,2.9-0.9,4.3c-0.6,1.3-1.3,2.5-2.3,3.5c-1,1-2.2,1.8-3.5,2.3c-1.3,0.6-2.8,0.9-4.3,0.9
		c-1.5,0-2.9-0.3-4.2-0.9c-1.3-0.6-2.5-1.4-3.5-2.3c-1-1-1.8-2.1-2.3-3.5c-0.6-1.3-0.9-2.8-0.9-4.3c0-1.5,0.3-2.9,0.9-4.2
		c0.6-1.3,1.4-2.5,2.3-3.5c1-1,2.1-1.8,3.5-2.3c1.3-0.6,2.7-0.9,4.2-0.9c1.5,0,2.9,0.3,4.3,0.9c1.3,0.6,2.5,1.4,3.5,2.3
		c1,1,1.8,2.1,2.3,3.5C930,92.7,930.3,94.1,930.3,95.6z M929.4,180.5h-20.1v-68.3h20.1V180.5z"/>
	<path class="st0" d="M481.4,242.8h-10.1v-36.5h18c1.7,0,3.3,0.2,4.9,0.6c1.6,0.4,3,1,4.2,1.9c1.2,0.9,2.2,2,2.9,3.3
		c0.7,1.4,1.1,3,1.1,4.9c0,1.5-0.3,2.9-1,4.2c-0.6,1.3-1.5,2.5-2.5,3.6c-1.1,1-2.3,1.9-3.6,2.6s-2.8,1.1-4.3,1.4
		c0.7,1.1,1.3,2.2,2.1,3.2c0.7,1,1.4,1.9,2.2,2.8c0.7,0.9,1.5,1.7,2.2,2.4c0.7,0.7,1.4,1.4,2.1,2c1.6,1.4,3.1,2.6,4.6,3.7h-12.6
		c-1-1-2-2.1-2.9-3.5c-0.8-1.1-1.6-2.6-2.3-4.3c-0.8-1.7-1.4-3.7-1.8-5.9h-3.1V242.8z M492.1,217c0-2.4-0.6-4.3-1.8-5.4
		c-1.2-1.1-3-1.7-5.4-1.7h-3.6v15.9h3.6c1.3,0,2.4-0.2,3.3-0.7c0.9-0.5,1.6-1.1,2.2-1.9c0.6-0.8,1-1.7,1.3-2.8
		C492,219.2,492.1,218.1,492.1,217z"/>
	<path class="st0" d="M535.4,223.1c0,1.2-0.2,2.3-0.6,3.2c-0.4,0.9-0.9,1.8-1.6,2.5c-0.7,0.7-1.4,1.3-2.3,1.8s-1.8,0.9-2.8,1.2
		c-1,0.3-2,0.5-3.1,0.7c-1.1,0.1-2.1,0.2-3.1,0.2c-1.3,0-2.5-0.1-3.8-0.3c-1.2-0.2-2.5-0.5-3.7-0.8c0.2,1.1,0.5,2.2,0.9,3.2
		c0.4,1,0.9,1.9,1.6,2.6c0.7,0.8,1.5,1.3,2.5,1.8c1,0.4,2.2,0.7,3.5,0.7c0.9,0,1.8-0.1,2.6-0.4s1.6-0.6,2.2-1.1
		c0.7-0.5,1.3-1.1,1.8-1.7c0.5-0.7,0.9-1.4,1.3-2.3l3.7,1.4c-0.6,1.3-1.3,2.5-2.3,3.5c-1,1-2.1,1.8-3.3,2.4
		c-1.2,0.6-2.5,1.1-3.9,1.4c-1.4,0.3-2.7,0.5-4.1,0.5c-2.2,0-4.3-0.4-6.2-1.1c-1.9-0.8-3.5-1.8-4.9-3.2c-1.4-1.4-2.4-3-3.2-4.8
		c-0.8-1.9-1.2-3.9-1.2-6.2s0.4-4.3,1.2-6.2c0.8-1.9,1.9-3.5,3.2-4.8c1.4-1.4,3-2.4,4.9-3.2c1.9-0.8,4-1.1,6.2-1.1
		c1.1,0,2.2,0.1,3.3,0.2c1.1,0.2,2.2,0.4,3.3,0.7s2.1,0.8,3,1.3c0.9,0.5,1.8,1.2,2.5,1.9c0.7,0.8,1.3,1.7,1.7,2.7
		C535.2,220.7,535.4,221.8,535.4,223.1z M514.3,228.9c1,0.2,2.1,0.4,3.1,0.6c1,0.1,2.1,0.2,3.2,0.2c1.1,0,2.2-0.1,3.1-0.3
		c1-0.2,1.8-0.6,2.5-1.1c0.7-0.5,1.3-1.2,1.7-2c0.4-0.8,0.6-1.9,0.6-3.1c0-1-0.1-1.9-0.4-2.7s-0.7-1.5-1.2-2.1
		c-0.5-0.6-1.2-1.1-2-1.4c-0.8-0.3-1.7-0.5-2.7-0.5c-1,0-1.8,0.2-2.6,0.5c-0.8,0.4-1.4,0.8-2,1.4c-0.6,0.6-1.1,1.3-1.5,2.1
		c-0.4,0.8-0.8,1.6-1,2.5s-0.5,1.7-0.6,2.6c-0.1,0.9-0.2,1.7-0.2,2.5c0,0.1,0,0.3,0,0.4S514.2,228.8,514.3,228.9z"/>
	<path class="st0" d="M566,233.5c0,1.3-0.2,2.4-0.6,3.4c-0.4,1-0.9,1.9-1.5,2.6c-0.6,0.7-1.4,1.4-2.3,1.8c-0.9,0.5-1.8,0.9-2.8,1.2
		c-1,0.3-2.1,0.5-3.2,0.7c-1.1,0.1-2.2,0.2-3.3,0.2c-1.5,0-2.7-0.1-3.9-0.3c-1.1-0.2-2.2-0.5-3.2-0.9c-1-0.4-2-1-3-1.6
		c-1-0.7-2.1-1.5-3.4-2.4l5-4.1c0.5,0.9,1.1,1.6,1.8,2.3c0.8,0.7,1.5,1.3,2.3,1.8c0.8,0.5,1.6,0.9,2.4,1.2s1.4,0.4,1.9,0.4
		c0.4,0,0.8,0,1.3,0c0.5,0,1-0.1,1.5-0.1c0.5-0.1,1-0.2,1.5-0.3c0.5-0.1,0.9-0.4,1.3-0.6c0.4-0.3,0.7-0.6,0.9-1
		c0.2-0.4,0.3-0.9,0.3-1.4c0-0.6-0.1-1.1-0.4-1.5c-0.3-0.4-0.7-0.8-1.2-1.1c-0.5-0.3-1-0.6-1.6-0.8c-0.6-0.2-1.2-0.4-1.8-0.6
		c-0.6-0.2-1.2-0.3-1.8-0.4c-0.6-0.1-1.1-0.2-1.5-0.4c-0.8-0.2-1.6-0.4-2.5-0.7c-0.9-0.2-1.7-0.5-2.6-0.8c-0.8-0.3-1.7-0.6-2.4-1
		c-0.8-0.4-1.4-0.9-2-1.5c-0.6-0.6-1-1.2-1.4-2c-0.3-0.8-0.5-1.7-0.5-2.7c0-1.9,0.4-3.5,1.1-4.8c0.8-1.3,1.7-2.3,3-3.1
		c1.2-0.8,2.6-1.3,4.2-1.6c1.6-0.3,3.2-0.5,4.8-0.5c1.1,0,2.3,0.1,3.5,0.3c1.2,0.2,2.4,0.6,3.6,1c1.2,0.4,2.3,1,3.3,1.6
		c1,0.6,1.9,1.4,2.5,2.2l-5,4.1c-0.4-1-0.9-1.9-1.5-2.6c-0.6-0.7-1.3-1.3-2-1.8c-0.7-0.5-1.4-0.8-2.2-1c-0.7-0.2-1.4-0.3-2-0.3
		c-0.6,0-1.3,0-2.1,0.1c-0.8,0-1.5,0.2-2.1,0.4c-0.7,0.2-1.2,0.6-1.7,1.1c-0.5,0.5-0.7,1.1-0.7,2c0,0.6,0.1,1.1,0.4,1.6
		c0.3,0.4,0.6,0.8,1.1,1.1c0.5,0.3,1,0.6,1.6,0.8c0.6,0.2,1.2,0.4,1.8,0.6c0.6,0.2,1.2,0.3,1.8,0.4c0.6,0.1,1.1,0.2,1.5,0.4
		c0.8,0.2,1.6,0.4,2.5,0.7c0.9,0.2,1.7,0.5,2.6,0.8c0.8,0.3,1.7,0.6,2.4,1c0.8,0.4,1.5,0.9,2.1,1.5c0.6,0.6,1.1,1.2,1.4,2
		C565.8,231.5,566,232.4,566,233.5z"/>
	<path class="st0" d="M582.4,242.8h-8.6v-25.9h-5.3v-3.4h5.3v-10.8h8.6v10.8h8.9v3.4h-8.9V242.8z"/>
	<path class="st0" d="M623.8,242.8h-8.6v-3.5c-1,1.4-2.2,2.4-3.7,3.1c-1.4,0.7-3,1-4.7,1c-2.2,0-4.2-0.4-6-1.2
		c-1.8-0.8-3.2-1.9-4.5-3.3c-1.2-1.4-2.1-3-2.8-4.9c-0.6-1.9-1-3.9-1-6s0.3-4.1,1-6c0.6-1.9,1.6-3.5,2.8-4.9
		c1.2-1.4,2.7-2.5,4.5-3.3c1.8-0.8,3.8-1.2,6-1.2c1.1,0,2.2,0.2,3.2,0.5c1,0.3,2,0.8,2.8,1.4c0.9,0.6,1.6,1.4,2.3,2.2
		c0.7,0.9,1.2,1.8,1.5,2.9l3.8-6.4h3.3V242.8z M615.2,228.1c0-0.8,0-1.6-0.1-2.4c-0.1-0.8-0.2-1.7-0.4-2.5c-0.2-0.8-0.4-1.6-0.8-2.4
		c-0.3-0.8-0.8-1.4-1.3-2c-0.5-0.6-1.1-1-1.9-1.4s-1.6-0.5-2.5-0.5s-1.8,0.2-2.5,0.5s-1.3,0.8-1.8,1.4c-0.5,0.6-0.9,1.3-1.3,2
		c-0.3,0.8-0.6,1.6-0.8,2.4c-0.2,0.8-0.3,1.7-0.4,2.5c-0.1,0.8-0.1,1.6-0.1,2.4s0,1.5,0.1,2.4c0.1,0.8,0.2,1.7,0.4,2.5
		c0.2,0.8,0.4,1.6,0.8,2.4c0.3,0.8,0.8,1.4,1.3,2c0.5,0.6,1.1,1,1.8,1.4c0.7,0.4,1.5,0.5,2.5,0.5c0.9,0,1.7-0.2,2.3-0.5
		c0.7-0.4,1.3-0.9,1.8-1.5c0.5-0.6,1-1.3,1.3-2.1s0.6-1.6,0.9-2.4c0.2-0.8,0.4-1.7,0.5-2.5C615.1,229.5,615.2,228.8,615.2,228.1z"/>
	<path class="st0" d="M629.5,230.3c0-1.3,0.1-2.7,0.3-4.2c0.2-1.4,0.6-2.9,1-4.3c0.4-1.4,1-2.9,1.6-4.3c0.6-1.4,1.3-2.7,2.1-4h6.3
		c-0.4,1.3-0.8,2.6-1.1,4c-0.3,1.4-0.6,2.8-0.8,4.1c-0.2,1.4-0.4,2.7-0.5,4c-0.1,1.3-0.2,2.5-0.2,3.7c0,0.7,0,1.4,0.1,2.1
		c0.1,0.8,0.2,1.5,0.3,2.3c0.2,0.8,0.4,1.5,0.6,2.2c0.3,0.7,0.6,1.3,1.1,1.8c0.4,0.5,1,1,1.6,1.3c0.6,0.3,1.4,0.5,2.2,0.5
		c0.8,0,1.6-0.2,2.3-0.6c0.7-0.4,1.3-0.9,1.8-1.5c0.5-0.6,0.9-1.3,1.3-2.1c0.4-0.8,0.6-1.6,0.9-2.4c0.2-0.8,0.4-1.7,0.5-2.5
		c0.1-0.8,0.2-1.5,0.2-2.2v-14.7h8.6v29.3h-3.3l-3.9-6.8c-0.5,1.1-1.1,2.2-1.8,3.1c-0.7,0.9-1.5,1.7-2.4,2.4c-0.9,0.7-1.9,1.2-3,1.5
		c-1.1,0.4-2.3,0.5-3.5,0.5c-2,0-3.8-0.3-5.3-1c-1.5-0.7-2.8-1.6-3.8-2.7c-1-1.2-1.7-2.6-2.2-4.2C629.7,234,629.5,232.2,629.5,230.3
		z"/>
	<path class="st0" d="M691.5,216.1l-4.8,8c-0.2-0.7-0.5-1.4-0.8-2.3c-0.3-0.8-0.7-1.6-1.2-2.4c-0.5-0.7-1-1.4-1.7-1.9
		c-0.7-0.5-1.4-0.7-2.3-0.7c-0.8,0-1.5,0.2-2.1,0.6c-0.6,0.4-1.1,0.9-1.5,1.6c-0.4,0.7-0.7,1.4-1,2.2c-0.3,0.8-0.5,1.7-0.6,2.5
		c-0.1,0.8-0.2,1.6-0.3,2.4c-0.1,0.8-0.1,1.4-0.1,2v14.7h-8.6v-29.3h3.3l3.5,6.8c0.5-1.1,1-2.1,1.6-3c0.6-0.9,1.3-1.7,2.1-2.4
		c0.8-0.7,1.7-1.2,2.7-1.6c1-0.4,2.1-0.6,3.4-0.6c0.7,0,1.4,0.1,2.2,0.2c0.8,0.1,1.6,0.3,2.4,0.6c0.8,0.3,1.5,0.6,2.2,1
		C690.6,215,691.1,215.5,691.5,216.1z"/>
	<path class="st0" d="M724,242.8h-8.6v-3.5c-1,1.4-2.2,2.4-3.7,3.1c-1.4,0.7-3,1-4.7,1c-2.2,0-4.2-0.4-6-1.2
		c-1.8-0.8-3.2-1.9-4.5-3.3c-1.2-1.4-2.1-3-2.8-4.9s-1-3.9-1-6s0.3-4.1,1-6s1.6-3.5,2.8-4.9c1.2-1.4,2.7-2.5,4.5-3.3
		c1.8-0.8,3.8-1.2,6-1.2c1.1,0,2.2,0.2,3.2,0.5c1,0.3,2,0.8,2.8,1.4c0.9,0.6,1.6,1.4,2.3,2.2c0.6,0.9,1.2,1.8,1.5,2.9l3.8-6.4h3.3
		V242.8z M715.3,228.1c0-0.8,0-1.6-0.1-2.4c-0.1-0.8-0.2-1.7-0.4-2.5c-0.2-0.8-0.4-1.6-0.8-2.4c-0.3-0.8-0.8-1.4-1.3-2
		c-0.5-0.6-1.1-1-1.9-1.4s-1.6-0.5-2.5-0.5s-1.8,0.2-2.5,0.5s-1.3,0.8-1.8,1.4c-0.5,0.6-0.9,1.3-1.3,2c-0.3,0.8-0.6,1.6-0.8,2.4
		c-0.2,0.8-0.3,1.7-0.4,2.5c-0.1,0.8-0.1,1.6-0.1,2.4s0,1.5,0.1,2.4c0.1,0.8,0.2,1.7,0.4,2.5c0.2,0.8,0.4,1.6,0.8,2.4
		c0.3,0.8,0.7,1.4,1.3,2c0.5,0.6,1.1,1,1.8,1.4c0.7,0.4,1.5,0.5,2.5,0.5c0.9,0,1.7-0.2,2.3-0.5c0.7-0.4,1.3-0.9,1.8-1.5
		c0.5-0.6,1-1.3,1.3-2.1c0.4-0.8,0.6-1.6,0.9-2.4c0.2-0.8,0.4-1.7,0.5-2.5C715.3,229.5,715.3,228.8,715.3,228.1z"/>
	<path class="st0" d="M761.1,226c0,2-0.2,4-0.7,6.2c-0.5,2.2-1.2,4.3-2,6.3c-0.9,2.1-1.9,4-3.1,5.8c-1.2,1.8-2.5,3.4-4,4.7l-3.2-1.7
		c0.5-0.8,0.9-1.8,1.3-2.8c0.4-1,0.8-2.2,1.1-3.3c0.3-1.2,0.6-2.4,0.9-3.6c0.3-1.3,0.5-2.5,0.7-3.7c0.2-1.2,0.3-2.4,0.4-3.6
		c0.1-1.2,0.1-2.2,0.1-3.2c0-0.7,0-1.4-0.1-2.1s-0.2-1.5-0.3-2.3c-0.2-0.8-0.4-1.5-0.6-2.2s-0.6-1.3-1.1-1.8c-0.4-0.5-1-0.9-1.6-1.3
		c-0.6-0.3-1.4-0.5-2.2-0.5c-0.8,0-1.6,0.2-2.3,0.6c-0.7,0.4-1.2,0.9-1.8,1.5c-0.5,0.6-0.9,1.3-1.3,2.1c-0.4,0.8-0.7,1.6-0.9,2.4
		c-0.2,0.8-0.4,1.7-0.5,2.5c-0.1,0.8-0.2,1.5-0.2,2.2v14.7h-8.6v-29.3h3.3l3.9,6.8c0.5-1.1,1.1-2.2,1.8-3.1c0.7-0.9,1.5-1.7,2.4-2.4
		c0.9-0.7,1.9-1.2,3-1.5c1.1-0.4,2.3-0.5,3.5-0.5c2,0,3.8,0.3,5.3,1c1.5,0.7,2.8,1.6,3.8,2.8c1,1.2,1.7,2.6,2.2,4.2
		C760.8,222.3,761.1,224.1,761.1,226z"/>
	<path class="st0" d="M777.5,242.8h-8.6v-25.9h-5.3v-3.4h5.3v-10.8h8.6v10.8h8.9v3.4h-8.9V242.8z"/>
</g>
<g>
	<circle class="st1" cx="186.6" cy="181.6" r="109.7"/>
	<circle class="st2" cx="186.6" cy="181.6" r="92.5"/>
	<path class="st0" d="M138.4,110.3c4.9,2.7,49.1,3.2,72.3,1.1c28.6-2.6,37.4,9.5,32.7,21.3c-10.6-0.4-27.1-0.9-37,0.4
		c-9.7,1.3-18.5,4.3-24.1,8c3.4-5.2,10.1-8.6,12.9-9.9c-3.9-0.2-21.3,0.4-19.6,28.4c12.1-4.1,15.9-3.2,25.4-10.5
		c9.5-7.3,21.7-12.1,25.8-4.5c4.1,7.7,3.7,12.9-12,14.9s-26.3,7.5-29.1,9.9c-2.8,2.4-3.4,5.2-0.9,7.8c2.4,2.6,27.6,24.3,39,30.4
		c11.4,6.2,31.2,10.8,37.4,12.7c6.2,1.9,14.2,5.8,14.2,12.1s-14.2,1.9-22.8,2.1c-8.6,0.2-32.1,1.7-42-10.3
		c-9.9-12-13.1-17.7-18.3-21.3c-5.2-3.5-11.8-7.3-14-12.7c-2.2-5.4-4.7-8.8-6.7-1.3s-14.6,38.8-30.1,44.5s-32.7-6-34.9-7.8
		c5.6,0.2,19.6,1.1,28.6-8c9-9.2,16.4-20.2,16.4-28.8c-5.4,2.6-24.8,16.4-29.1,6.2s1.1-12,6.5-12.7c5.4-0.7,17.9-3.7,20.2-9.3
		s0.6-5.8,0.7-7.5c0.2-1.7,0-1.7,2.2-1.9c2.2-0.2,3.9,0.2,5,0.2s2.8-0.9,3.2-4.9c0.4-3.9,1.3-15.3,1.7-18.1
		c-5.6,2.4-15.3,4.7-26.1-6.4c-10.8-11-10.3-24.1-8.2-26.5C129.6,105.6,134.7,108.3,138.4,110.3z"/>
	<ellipse class="st0" cx="181" cy="241.7" rx="11.5" ry="10.4"/>
	<ellipse class="st1" cx="181" cy="241.7" rx="9" ry="8.1"/>
	<path class="st0" d="M186.5,246l-2.8,2c-1.2,0.4-3.5-1.2-3.9-2.4l0-3.5c-0.4-1.2-1.1-3.5,0.1-3.8l3.8-1.2c1.2-0.4,3.4,0.5,3.8,1.7
		l-0.3,3.3C187.5,243.3,187.7,245.6,186.5,246z"/>
	<polygon class="st3" points="63.1,63.5 77.3,52.8 191.2,237 	"/>
	<polygon class="st3" points="10.8,105.6 22.5,92.1 172.7,248.2 	"/>
	<path class="st0" d="M175.2,243.9l-0.7-1c-0.2-0.2-0.4-0.4-0.6-0.6c-1-0.7-1.8-1.7-1.2-2.8l0,0c0.2-0.3,0.4-0.5,0.7-0.7
		c1-0.7,2.4-0.5,3.3,0.4l1.7,1.9c0.2,0.2,0.3,0.3,0.5,0.4c1,0.6,1.4,1.1,0.7,2.2l0,0c-0.4,0.6-1.1,1.1-1.9,1.2
		C176.7,245.1,175.8,244.7,175.2,243.9z"/>
</g>
<g>
</g>
<g>
</g>
<g>
</g>
<g>
</g>
<g>
</g>
<g>
</g>
<g>
</g>
<g>
</g>
<g>
</g>
<g>
</g>
<g>
</g>
<g>
</g>
<g>
</g>
<g>
</g>
<g>
</g>
</svg>
