<?xml version="1.0" encoding="utf-8"?>
<!-- Generator: Adobe Illustrator 18.1.1, SVG Export Plug-In . SVG Version: 6.00 Build 0)  -->
<!DOCTYPE svg PUBLIC "-//W3C//DTD SVG 1.1//EN" "http://www.w3.org/Graphics/SVG/1.1/DTD/svg11.dtd">
<svg version="1.1" id="Layer_1" xmlns="http://www.w3.org/2000/svg" xmlns:xlink="http://www.w3.org/1999/xlink" x="0px" y="0px"
	 width="250px" height="250px" viewBox="0 0 250 250" style="enable-background:new 0 0 250 250;" xml:space="preserve">
<style type="text/css">
	.st0{fill:#FFFFFF;}
	.st1{fill:none;stroke:#231F20;stroke-width:5.5573;stroke-miterlimit:10;}
	.st2{fill:#231F20;}
	.st3{fill:#9C2C27;}
</style>
<g>
	<circle class="st0" cx="152.3" cy="124.7" r="90.5"/>
	<circle class="st1" cx="152.3" cy="124.7" r="76.3"/>
	<path class="st2" d="M112.5,65.9c4,2.2,40.6,2.7,59.7,0.9c23.6-2.2,30.9,7.8,27,17.6c-8.8-0.3-22.4-0.8-30.5,0.3
		c-8,1.1-15.3,3.5-19.9,6.6c2.8-4.3,8.3-7.1,10.6-8.2c-3.2-0.2-17.6,0.3-16.2,23.4c10-3.4,13.1-2.6,21-8.6c7.9-6,17.9-10,21.3-3.7
		s3.1,10.6-9.9,12.3s-21.7,6.2-24,8.2c-2.3,2-2.8,4.3-0.8,6.5c2,2.2,22.8,20,32.2,25.1c9.4,5.1,25.7,8.9,30.8,10.5
		c5.1,1.5,11.7,4.8,11.7,10c0,5.2-11.7,1.5-18.8,1.7c-7.1,0.2-26.5,1.4-34.7-8.5c-8.2-9.9-10.8-14.6-15.1-17.6
		c-4.3-2.9-9.7-6-11.6-10.5c-1.8-4.5-3.9-7.2-5.5-1.1c-1.7,6.2-12,32.1-24.8,36.7c-12.8,4.6-27-4.9-28.8-6.5
		c4.6,0.2,16.2,0.9,23.6-6.6c7.4-7.6,13.6-16.6,13.6-23.7c-4.5,2.2-20.5,13.6-24,5.1c-3.5-8.5,0.9-9.9,5.4-10.5s14.8-3.1,16.6-7.7
		c1.8-4.6,0.5-4.8,0.6-6.2c0.2-1.4,0-1.4,1.8-1.5c1.8-0.2,3.2,0.2,4.2,0.2c0.9,0,2.3-0.8,2.6-4s1.1-12.6,1.4-15
		c-4.6,2-12.6,3.9-21.6-5.2s-8.5-19.9-6.8-21.9S109.4,64.2,112.5,65.9z"/>
	<ellipse class="st2" cx="147.7" cy="174.3" rx="9.5" ry="8.6"/>
	<ellipse class="st0" cx="147.7" cy="174.3" rx="7.4" ry="6.7"/>
	<path class="st2" d="M152.2,177.8l-2.3,1.7c-1,0.3-2.9-1-3.2-2l0-2.9c-0.3-1-0.9-2.9,0.1-3.2l3.2-1c1-0.3,2.8,0.4,3.1,1.4l-0.3,2.7
		C153.1,175.7,153.1,177.5,152.2,177.8z"/>
	<polygon class="st3" points="50.3,27.2 62.1,18.4 156,170.5 	"/>
	<polygon class="st3" points="7.2,62 16.8,50.9 140.8,179.7 	"/>
	<path class="st2" d="M142.9,176.2l-0.6-0.8c-0.1-0.2-0.3-0.4-0.5-0.5c-0.8-0.6-1.5-1.4-1-2.3v0c0.1-0.2,0.3-0.4,0.6-0.6
		c0.8-0.6,2-0.4,2.7,0.3l1.4,1.5c0.1,0.1,0.3,0.3,0.4,0.4c0.8,0.5,1.1,0.9,0.6,1.8l0,0c-0.3,0.5-0.9,0.9-1.6,1
		C144.1,177.1,143.4,176.8,142.9,176.2z"/>
</g>
<g>
</g>
<g>
</g>
<g>
</g>
<g>
</g>
<g>
</g>
<g>
</g>
<g>
</g>
<g>
</g>
<g>
</g>
<g>
</g>
<g>
</g>
<g>
</g>
<g>
</g>
<g>
</g>
<g>
</g>
</svg>
