<svg xmlns="http://www.w3.org/2000/svg" width="250" height="250" viewBox="0 0 250 250"><style type="text/css">.st0{fill:#FFFFFF;} .st1{fill:none;stroke:#231F20;stroke-width:5.5573;stroke-miterlimit:10;} .st2{fill:#231F20;} .st3{fill:#9C2C27;}</style><circle class="st0" cx="152.3" cy="124.7" r="90.5"/><circle class="st1" cx="152.3" cy="124.7" r="76.3"/><path class="st2" d="M112.5 65.9c4 2.2 40.6 2.7 59.7.9 23.6-2.2 30.9 7.8 27 17.6-8.8-.3-22.4-.8-30.5.3-8 1.1-15.3 3.5-19.9 6.6 2.8-4.3 8.3-7.1 10.6-8.2-3.2-.2-17.6.3-16.2 23.4 10-3.4 13.1-2.6 21-8.6s17.9-10 21.3-3.7 3.1 10.6-9.9 12.3-21.7 6.2-24 8.2c-2.3 2-2.8 4.3-.8 6.5 2 2.2 22.8 20 32.2 25.1 9.4 5.1 25.7 8.9 30.8 10.5 5.1 1.5 11.7 4.8 11.7 10s-11.7 1.5-18.8 1.7c-7.1.2-26.5 1.4-34.7-8.5-8.2-9.9-10.8-14.6-15.1-17.6-4.3-2.9-9.7-6-11.6-10.5-1.8-4.5-3.9-7.2-5.5-1.1-1.7 6.2-12 32.1-24.8 36.7-12.8 4.6-27-4.9-28.8-6.5 4.6.2 16.2.9 23.6-6.6 7.4-7.6 13.6-16.6 13.6-23.7-4.5 2.2-20.5 13.6-24 5.1s.9-9.9 5.4-10.5 14.8-3.1 16.6-7.7c1.8-4.6.5-4.8.6-6.2.2-1.4 0-1.4 1.8-1.5 1.8-.2 3.2.2 4.2.2.9 0 2.3-.8 2.6-4s1.1-12.6 1.4-15c-4.6 2-12.6 3.9-21.6-5.2s-8.5-19.9-6.8-21.9 5.8.2 8.9 1.9z"/><ellipse class="st2" cx="147.7" cy="174.3" rx="9.5" ry="8.6"/><ellipse class="st0" cx="147.7" cy="174.3" rx="7.4" ry="6.7"/><path class="st2" d="M152.2 177.8l-2.3 1.7c-1 .3-2.9-1-3.2-2v-2.9c-.3-1-.9-2.9.1-3.2l3.2-1c1-.3 2.8.4 3.1 1.4l-.3 2.7c.3 1.2.3 3-.6 3.3z"/><path class="st3" d="M50.3 27.2l11.8-8.8 93.9 152.1zM7.2 62l9.6-11.1 124 128.8z"/><path class="st2" d="M142.9 176.2l-.6-.8c-.1-.2-.3-.4-.5-.5-.8-.6-1.5-1.4-1-2.3.1-.2.3-.4.6-.6.8-.6 2-.4 2.7.3l1.4 1.5.4.4c.8.5 1.1.9.6 1.8-.3.5-.9.9-1.6 1-.8.1-1.5-.2-2-.8z"/></svg>